<?xml version="1.0" encoding="UTF-8"?>
<svg id="Layer_2" data-name="Layer 2" xmlns="http://www.w3.org/2000/svg" viewBox="0 0 501.99 82.47">
  <defs>
    <style>
      .cls-1 {
        fill: #1f6ab5;
      }

      .cls-2 {
        fill: #0a0630;
      }
    </style>
  </defs>
  <g id="Artwork">
    <g>
      <g>
        <path class="cls-2" d="M92.63,27.38h-11.8v-3.65h27.55v3.65h-11.8v31.35h-3.95v-31.35Z"/>
        <path class="cls-2" d="M115.92,41.33v-.1c0-9.65,7.25-18.1,17.9-18.1s17.8,8.35,17.8,18v.1c0,9.65-7.25,18.1-17.9,18.1s-17.8-8.35-17.8-18ZM147.52,41.33v-.1c0-7.95-5.8-14.45-13.8-14.45s-13.7,6.4-13.7,14.35v.1c0,7.95,5.8,14.45,13.8,14.45s13.7-6.4,13.7-14.35Z"/>
        <path class="cls-2" d="M171.04,27.38h-11.8v-3.65h27.55v3.65h-11.8v31.35h-3.95v-31.35Z"/>
        <path class="cls-2" d="M206.22,23.48h3.7l15.95,35.25h-4.25l-4.1-9.25h-19.05l-4.15,9.25h-4.05l15.95-35.25ZM215.97,45.94l-7.95-17.85-8,17.85h15.95Z"/>
        <path class="cls-2" d="M236.97,23.73h3.95v31.35h19.7v3.65h-23.65V23.73Z"/>
        <path class="cls-2" d="M292.17,44.08v-20.35h3.95v20.1c0,7.55,4,11.8,10.7,11.8s10.55-3.9,10.55-11.55v-20.35h3.95v20.05c0,10.2-5.85,15.5-14.6,15.5s-14.55-5.3-14.55-15.2Z"/>
        <path class="cls-2" d="M335.64,23.73h13.1c7.9,0,13.1,4.2,13.1,11.1v.1c0,7.55-6.3,11.45-13.75,11.45h-8.5v12.35h-3.95V23.73ZM348.25,42.78c5.8,0,9.6-3.1,9.6-7.7v-.1c0-5-3.75-7.6-9.4-7.6h-8.85v15.4h8.65Z"/>
        <path class="cls-2" d="M382.35,27.38h-11.8v-3.65h27.55v3.65h-11.8v31.35h-3.95v-31.35Z"/>
        <path class="cls-2" d="M409.47,23.73h3.95v35h-3.95V23.73Z"/>
        <path class="cls-2" d="M428.2,23.73h4l12.75,19.1,12.75-19.1h4v35h-3.95v-28.35l-12.75,18.75h-.2l-12.75-18.7v28.3h-3.85V23.73Z"/>
        <path class="cls-2" d="M476.44,23.73h25.3v3.6h-21.35v11.95h19.1v3.6h-19.1v12.25h21.6v3.6h-25.55V23.73Z"/>
      </g>
      <g>
        <g>
          <path class="cls-2" d="M48.65,31.36c-.31,0-.61-.1-.85-.3L25,12.49,2.2,31.06c-.4.33-.96.4-1.43.17-.47-.22-.77-.7-.77-1.22v-7.41c0-1.8.8-3.48,2.19-4.61L23.72.45c.74-.6,1.82-.6,2.56,0l21.53,17.53c1.39,1.13,2.19,2.82,2.19,4.61v7.41c0,.52-.3,1-.77,1.22-.18.09-.38.13-.58.13ZM25,2.9L3.9,20.08c-.76.62-1.2,1.54-1.2,2.52v4.57L23.72,10.05c.74-.6,1.82-.6,2.56,0l21.02,17.12v-4.57c0-.98-.44-1.9-1.2-2.52h0S25,2.9,25,2.9Z"/>
          <path class="cls-2" d="M48.65,52.75c-.31,0-.61-.1-.85-.3l-22.8-18.56L2.2,52.45c-.4.33-.96.4-1.43.17-.47-.22-.77-.7-.77-1.22v-7.41c0-1.8.8-3.48,2.19-4.61l21.53-17.53c.74-.6,1.82-.6,2.56,0l21.53,17.53c1.39,1.13,2.19,2.82,2.19,4.61v7.41c0,.52-.3,1-.77,1.22-.18.09-.38.13-.58.13ZM25,30.98c.45,0,.91.15,1.28.45l21.02,17.12v-4.57c0-.98-.44-1.9-1.2-2.52h0s-21.1-17.18-21.1-17.18L3.9,41.47c-.76.62-1.2,1.54-1.2,2.52v4.57l21.02-17.12c.37-.3.83-.45,1.28-.45Z"/>
        </g>
        <g>
          <path class="cls-2" d="M48.27,61.2l-19.2-15.64s-.03-.02-.05-.03c-.04-.03-.08-.05-.12-.08-.04-.02-.07-.04-.11-.06-.04-.02-.08-.03-.12-.05-.04-.01-.08-.03-.13-.04-.04-.01-.08-.02-.12-.02-.05,0-.09-.01-.14-.01-.02,0-.04,0-.06,0-.02,0-.04,0-.07,0-.05,0-.09,0-.14.01-.04,0-.08.01-.13.03-.04.01-.08.02-.12.04-.04.02-.08.03-.12.05-.04.02-.08.04-.11.06-.04.02-.08.05-.11.07-.03.03-.07.05-.1.08-.04.03-.07.07-.1.1-.01.02-.03.03-.05.05-.01.02-.02.03-.03.05-.03.04-.06.08-.08.12-.02.04-.04.07-.06.11-.02.04-.03.08-.05.12-.01.04-.03.08-.04.13-.01.04-.02.08-.02.12,0,.05-.01.1-.01.14,0,.02,0,.04,0,.06v17.29c0,1.03-.83,1.86-1.86,1.86s-1.86-.83-1.86-1.86v-17.29s0-.04,0-.06c0-.05,0-.1-.01-.14,0-.04-.01-.08-.02-.12-.01-.04-.02-.09-.04-.13-.02-.04-.03-.08-.05-.12-.02-.04-.04-.07-.06-.11-.02-.04-.05-.08-.08-.12-.01-.02-.02-.03-.03-.05-.01-.02-.03-.03-.05-.05-.03-.04-.06-.07-.1-.1-.03-.03-.06-.06-.1-.08-.04-.03-.07-.05-.11-.07-.04-.02-.08-.04-.12-.06-.04-.02-.08-.03-.12-.05-.04-.02-.08-.03-.13-.04-.04-.01-.08-.02-.12-.02-.05,0-.1-.01-.14-.01-.02,0-.04,0-.06,0-.02,0-.04,0-.06,0-.05,0-.1,0-.15.01-.04,0-.08.01-.12.02-.04.01-.09.02-.13.04-.04.01-.08.03-.12.05-.04.02-.07.04-.11.06-.04.02-.08.05-.12.08-.02.01-.03.02-.05.03L1.72,61.21c-.66.54-1.04,1.34-1.04,2.2s.38,1.66,1.04,2.2l18.72,15.25c1.32,1.08,2.94,1.61,4.56,1.61,1.62,0,3.24-.54,4.56-1.61l18.71-15.24c.67-.54,1.05-1.35,1.05-2.21s-.38-1.67-1.05-2.21ZM46.57,63.52l-18.71,15.24c-1.65,1.35-4.05,1.35-5.71,0L3.43,63.51s-.05-.04-.05-.1.04-.09.05-.1l17.01-13.86v14.44c0,2.52,2.05,4.56,4.56,4.56s4.56-2.05,4.56-4.56v-14.44l17,13.84s.05.04.05.11-.04.1-.05.11Z"/>
          <path class="cls-1" d="M46.57,63.52l-18.71,15.24c-1.65,1.35-4.05,1.35-5.71,0L3.43,63.51s-.05-.04-.05-.1.04-.09.05-.1l17.01-13.86v14.44c0,2.52,2.05,4.56,4.56,4.56s4.56-2.05,4.56-4.56v-14.44l17,13.84s.05.04.05.11-.04.1-.05.11Z"/>
        </g>
      </g>
    </g>
  </g>
</svg>